PathFileType	4	(X/Y/Z)	c:/Users/goper/Files/vsCode/490R/osim_files/C10/C10_Static.trc
DataRate	CameraRate	NumFrames	NumMarkers	Units                	OrigDataRate	OrigDataStartFrame	OrigNumFrames
250.00	250.00	8	36	mm	250.0	1725	1971
                Frame#	Time	LPSIS			LASIS			LTH1			LTH2			LTH3			LTH4			LLFE			LMFE			LSH1			LSH2			LSH3			LSH4			LLMAL			LMMAL			LCAL			LMTP5			LTOE			LMTP1			RPSIS			RASIS			RTH1			RTH2			RTH3			RTH4			RLFE			RMFE			RSH1			RSH2			RSH3			RSH4			RLMAL			RMMAL			RCAL			RMTP1			RTOE			RMTP5		
		X1	Y1	Z1	X2	Y2	Z2	X3	Y3	Z3	X4	Y4	Z4	X5	Y5	Z5	X6	Y6	Z6	X7	Y7	Z7	X8	Y8	Z8	X9	Y9	Z9	X10	Y10	Z10	X11	Y11	Z11	X12	Y12	Z12	X13	Y13	Z13	X14	Y14	Z14	X15	Y15	Z15	X16	Y16	Z16	X17	Y17	Z17	X18	Y18	Z18	X19	Y19	Z19	X20	Y20	Z20	X21	Y21	Z21	X22	Y22	Z22	X23	Y23	Z23	X24	Y24	Z24	X25	Y25	Z25	X26	Y26	Z26	X27	Y27	Z27	X28	Y28	Z28	X29	Y29	Z29	X30	Y30	Z30	X31	Y31	Z31	X32	Y32	Z32	X33	Y33	Z33	X34	Y34	Z34	X35	Y35	Z35	X36	Y36	Z36

1725	6.89600	-322.47177	1027.22021	443.26010	-180.42189	1000.14233	292.21390	-269.09702	795.63953	255.79573	-264.37003	749.64447	246.04306	-208.40298	795.73218	254.29048	-212.75597	748.93317	250.34801	-244.44312	492.70944	273.30319	-229.84497	466.61658	387.43839	-307.53128	418.23566	258.20435	-308.86990	370.85022	248.77094	-246.11124	412.01843	261.28513	-254.93224	367.93329	252.07059	-284.52512	92.82706	239.59895	-272.78848	89.94297	319.59601	-347.85696	38.59883	278.95895	-177.17810	28.23611	206.39554	-121.86289	47.09899	266.38345	-156.23892	26.31512	315.70914	-310.91574	1028.96289	523.40265	-142.98503	998.37085	633.33838	-243.48653	757.46680	690.28943	-236.00163	714.44885	694.73431	-182.28171	760.96808	692.58679	-182.21960	717.04358	696.98676	-218.89381	486.14685	667.71271	-207.11078	463.66760	557.18884	-296.48303	404.79263	690.84399	-292.79092	361.71698	699.89801	-233.57518	400.61548	689.11377	-240.44922	360.32327	698.04962	-274.42584	91.26279	699.42609	-255.22394	89.49628	619.78271	-329.53082	40.68430	664.34235	-134.92229	33.57133	637.14099	-104.50677	46.01059	678.76703	-156.29901	30.73096	740.60504
1726	6.90000	-322.45691	1027.20593	443.29321	-180.41570	1000.13531	292.21332	-269.10352	795.64551	255.81691	-264.36182	749.64850	246.04201	-208.38716	795.73016	254.29381	-212.74394	748.90912	250.35654	-244.41789	492.71829	273.29990	-229.85527	466.57721	387.45502	-308.38147	417.51105	259.14905	-308.88403	370.82993	248.80081	-246.08821	411.98792	261.28848	-254.90695	367.91559	252.09529	-284.50302	92.82588	239.60133	-272.77719	89.91045	319.60129	-347.85199	38.62106	278.97098	-177.15015	28.24614	206.40015	-121.86862	47.08160	266.38495	-156.21953	26.29064	315.77490	-310.87354	1028.96765	523.43848	-142.92938	998.33545	633.33508	-243.42526	757.42920	690.30499	-235.93370	714.43274	694.75110	-182.23271	760.94690	692.61121	-182.18196	716.99255	696.99634	-218.87537	486.12054	667.70764	-207.10515	463.63913	557.21228	-296.45889	404.79987	690.86292	-292.75598	361.72052	699.91803	-233.53983	400.58908	689.15210	-240.44864	360.27362	698.05554	-274.39798	91.27436	699.44446	-255.19206	89.49780	619.78510	-329.51233	40.69026	664.35712	-134.91289	33.55392	637.13428	-104.49748	46.00625	678.77789	-156.28578	30.70434	740.60229
1727	6.90400	-322.44476	1027.20544	443.34937	-180.43402	1000.11975	292.24130	-269.09964	795.66595	255.81476	-264.33691	749.65570	246.04814	-208.38728	795.74243	254.31291	-212.73578	748.92108	250.38159	-244.42212	492.71555	273.30170	-229.87006	466.55191	387.48648	-308.43433	417.46564	259.20029	-308.89536	370.84525	248.78271	-246.11081	411.97522	261.30139	-254.92007	367.90833	252.09743	-284.50299	92.82516	239.60323	-272.78128	89.89194	319.63687	-347.81485	38.57393	279.00748	-177.13271	28.22771	206.40161	-121.89586	47.02129	266.42371	-156.30975	26.22288	315.79318	-310.85599	1028.96973	523.47430	-142.94188	998.27856	633.36493	-243.37679	757.40680	690.35370	-235.88298	714.40967	694.78760	-182.24074	760.86938	692.60999	-182.19040	716.94824	697.00159	-218.88098	486.07611	667.71820	-207.11786	463.62857	557.20447	-296.41779	404.76874	690.89722	-292.71619	361.69751	699.95465	-233.59003	400.53122	689.15430	-240.46407	360.23904	698.06934	-274.39456	91.22670	699.46765	-255.19357	89.49216	619.78979	-329.49533	40.64919	664.41101	-134.96841	33.48373	637.13470	-104.52756	45.95816	678.79810	-156.29871	30.66520	740.62079
1728	6.90800	-322.47604	1027.21619	443.40863	-180.45586	1000.11407	292.24512	-269.10654	795.64874	255.83305	-264.35251	749.64423	246.05556	-208.41142	795.71490	254.30530	-212.73586	748.92169	250.37027	-244.40787	492.70709	273.31680	-229.86633	466.53833	387.45651	-308.45767	417.40259	259.27643	-308.89093	370.82870	248.79930	-246.09996	411.97305	261.29480	-254.88565	367.91211	252.10078	-284.49005	92.83221	239.60297	-272.77530	89.87110	319.63748	-347.64279	38.53406	279.16104	-177.12726	28.24699	206.40448	-121.89963	46.99351	266.44000	-156.35988	26.10798	315.78168	-310.84906	1028.97046	523.50739	-142.92928	998.22797	633.36493	-243.33342	757.35217	690.38000	-235.84370	714.37628	694.80359	-182.19661	760.80560	692.62146	-182.17650	716.87946	696.99640	-218.87646	486.04858	667.73737	-207.09785	463.61893	557.19812	-296.41132	404.74033	690.91998	-292.72739	361.74603	699.93378	-233.61282	400.48157	689.17572	-240.48578	360.16003	698.08148	-274.38818	91.19977	699.48126	-255.17619	89.48682	619.78613	-329.48056	40.58701	664.47754	-135.01863	33.38883	637.16321	-104.54401	45.91633	678.83154	-156.31911	30.61529	740.63690
1729	6.91200	-322.43887	1027.21375	443.43271	-180.47081	1000.13574	292.23346	-269.12204	795.66248	255.84340	-264.38071	749.63812	246.07550	-208.43791	795.72174	254.32051	-212.75589	748.92438	250.36761	-244.39813	492.71158	273.30557	-229.88672	466.50214	387.46857	-308.46143	417.37219	259.22507	-308.84491	370.85425	248.77567	-246.09201	411.98059	261.29822	-254.91936	367.89606	252.09767	-284.49100	92.83208	239.61061	-272.74564	89.86307	319.66498	-347.76376	38.50496	279.10974	-177.13397	28.24449	206.39062	-121.91674	46.95429	266.45584	-156.35855	26.08379	315.73358	-310.83350	1028.95679	523.56445	-142.93633	998.18042	633.37109	-243.28819	757.31958	690.40704	-235.79063	714.34161	694.81647	-182.18402	760.74713	692.63855	-182.14954	716.85260	696.99414	-218.84868	486.01398	667.73682	-207.08340	463.63782	557.17957	-296.38266	404.73517	690.93768	-292.71094	361.72552	699.96875	-233.60078	400.42624	689.18250	-240.49939	360.13608	698.10370	-274.39316	91.17812	699.50214	-255.20818	89.49258	619.76630	-329.49020	40.54886	664.54156	-135.00043	33.37091	637.19189	-104.53622	45.89699	678.82495	-156.30649	30.60662	740.64624
1730	6.91600	-322.44412	1027.23022	443.48257	-180.49445	1000.11639	292.25586	-269.13321	795.65161	255.84810	-264.37607	749.63281	246.07228	-208.43886	795.70911	254.33374	-212.77124	748.91321	250.37671	-244.39769	492.70697	273.32141	-229.89151	466.49573	387.48633	-308.48380	417.36066	259.29962	-308.85507	370.85068	248.78235	-246.10764	411.95023	261.32199	-254.93240	367.89215	252.11171	-284.48984	92.82201	239.61641	-272.73541	89.85712	319.69519	-347.76181	38.48728	279.13669	-177.15379	28.22428	206.41328	-121.90723	46.94584	266.46893	-156.40230	26.03816	315.83194	-310.82584	1028.95288	523.59937	-142.94069	998.15424	633.37048	-243.22600	757.31598	690.43903	-235.77060	714.31921	694.84259	-182.14694	760.73474	692.61713	-182.13420	716.81268	696.98639	-218.83557	485.99844	667.76080	-207.10178	463.60977	557.18622	-296.36386	404.70493	690.96265	-292.68066	361.70505	700.00616	-233.58992	400.41614	689.18646	-240.50871	360.08578	698.10675	-274.37692	91.15482	699.52856	-255.20500	89.46990	619.79242	-329.47681	40.52306	664.57147	-135.07851	33.33383	637.19385	-104.54444	45.87701	678.84644	-156.31720	30.59369	740.65594
1731	6.92000	-322.42395	1027.23987	443.52112	-180.52316	1000.15106	292.24496	-269.15231	795.65833	255.86264	-264.41208	749.62164	246.09021	-208.46652	795.71857	254.33270	-212.79927	748.91400	250.38260	-244.41951	492.71695	273.32727	-229.85216	466.51340	387.47162	-308.47983	417.41077	259.28439	-308.85605	370.86832	248.77603	-246.11560	411.97064	261.30353	-254.92882	367.90530	252.11076	-284.50464	92.83551	239.62033	-272.61316	89.97796	319.60086	-347.63998	38.50458	279.22278	-177.15227	28.23364	206.41539	-121.91983	46.96886	266.47211	-156.44774	26.00768	315.71704	-310.81482	1028.96008	523.62903	-142.88513	998.17603	633.37708	-243.19644	757.34015	690.44757	-235.73840	714.32166	694.85284	-182.11702	760.72217	692.62744	-182.08487	716.83191	696.97260	-218.79849	485.99899	667.76404	-207.09770	463.63013	557.16919	-296.37189	404.71060	690.96564	-292.68176	361.73199	700.00287	-233.58911	400.43149	689.18396	-240.50233	360.11234	698.10132	-274.39911	91.16655	699.52454	-255.20711	89.47709	619.79413	-329.47031	40.54116	664.56622	-135.07491	33.30950	637.19781	-104.53969	45.90694	678.84381	-156.34154	30.60283	740.65936
1732	6.92400	-322.45020	1027.26721	443.51895	-180.51100	1000.17120	292.23627	-269.18011	795.67316	255.89018	-264.40970	749.62811	246.11304	-208.46783	795.69391	254.33820	-212.79001	748.93616	250.38690	-244.43164	492.70071	273.33939	-229.81506	466.54340	387.46936	-308.46436	417.44080	259.30612	-308.83875	370.88943	248.78525	-246.11188	411.96725	261.30762	-254.91463	367.91232	252.11217	-284.49454	92.84010	239.61702	-272.73672	89.87422	319.67041	-347.76920	38.49792	279.12982	-177.15683	28.23556	206.40858	-121.91753	46.96780	266.45856	-156.47108	26.01241	315.72797	-310.78925	1028.95691	523.62402	-142.84775	998.19391	633.35925	-243.15536	757.35034	690.41699	-235.71780	714.33936	694.82391	-182.03458	760.76105	692.58081	-182.02975	716.84344	696.94287	-218.75317	486.02460	667.74792	-207.06621	463.63394	557.15424	-296.32013	404.72037	690.95874	-292.67715	361.72995	699.98602	-233.55504	400.44849	689.14618	-240.45717	360.14151	698.08838	-274.42099	91.16632	699.49860	-255.21568	89.47815	619.78015	-329.47003	40.53663	664.54980	-135.03456	33.38208	637.16907	-104.54614	45.90332	678.82831	-156.31618	30.63021	740.64166
